<svg xmlns="http://www.w3.org/2000/svg" x="0px" y="0px" width="40" height="40" viewBox="0 0 172 172" style=" fill:#212c56;"><g fill="none" fill-rule="nonzero" stroke="none" stroke-width="1" stroke-linecap="butt" stroke-linejoin="miter" stroke-miterlimit="10" stroke-dasharray="" stroke-dashoffset="0" font-family="none" font-weight="none" font-size="none" text-anchor="none" style="mix-blend-mode: normal"><path d="M0,172v-172h172v172z" fill="none"/><g fill="#cf042d" style="fill: #212c56;"><path d="M85.2475,10.105c-3.5475,0.38969 -6.20812,3.42656 -6.1275,6.9875v81.5925l-12.3625,-12.3625c-1.45125,-1.49156 -3.50719,-2.24406 -5.59,-2.0425c-2.67406,0.25531 -4.95844,2.05594 -5.83187,4.59563c-0.88688,2.55312 -0.20156,5.375 1.74687,7.22937l28.9175,28.9175l28.9175,-28.9175c1.80063,-1.72 2.53969,-4.27312 1.92156,-6.69187c-0.61813,-2.40531 -2.48594,-4.3 -4.89125,-4.945c-2.40531,-0.645 -4.97188,0.06719 -6.70531,1.85437l-12.3625,12.3625v-81.5925c0.02688,-1.86781 -0.69875,-3.655 -2.01562,-4.97187c-1.31688,-1.31688 -3.10406,-2.0425 -4.97188,-2.01563c-0.215,-0.01344 -0.43,-0.01344 -0.645,0zM6.88,123.84v19.565c0,5.07938 1.54531,9.9975 5.16,13.4375c3.61469,3.44 8.58656,4.8375 13.545,4.8375h120.9375c5.02563,0 9.9975,-1.42437 13.545,-4.945c3.5475,-3.52062 5.0525,-8.61344 5.0525,-13.6525v-19.2425h-13.76v19.2425c0,2.52625 -0.5375,3.45344 -0.9675,3.87c-0.43,0.41656 -1.33031,0.9675 -3.87,0.9675h-120.9375c-2.60687,0 -3.56094,-0.57781 -3.9775,-0.9675c-0.41656,-0.38969 -0.9675,-1.04812 -0.9675,-3.5475v-19.565z"/></g></g></svg>